<?xml version="1.0" encoding="UTF-8" standalone="no"?>
<!DOCTYPE svg PUBLIC "-//W3C//DTD SVG 1.1//EN" "http://www.w3.org/Graphics/SVG/1.1/DTD/svg11.dtd">
<svg width="100%" height="100%" viewBox="0 0 359 171" version="1.1" xmlns="http://www.w3.org/2000/svg" xmlns:xlink="http://www.w3.org/1999/xlink" xml:space="preserve" xmlns:serif="http://www.serif.com/" style="fill-rule:evenodd;clip-rule:evenodd;stroke-linejoin:round;stroke-miterlimit:2;">
    <g transform="matrix(4.16667,0,0,4.16667,0,0)">
        <path d="M39.338,40.587L41.378,40.587L42.21,38.546L46.056,38.546L46.888,40.587L48.978,40.587L45.08,31.426L43.236,31.426L39.338,40.587ZM42.924,36.781L44.132,33.83L45.341,36.781L42.924,36.781ZM52.709,40.587L54.679,40.587L54.679,34.805L59.088,40.587L60.789,40.587L60.789,31.49L58.814,31.49L58.814,37.091L54.55,31.49L52.709,31.49L52.709,40.587ZM69.713,40.744C72.521,40.744 74.56,38.626 74.56,36.039L74.56,36.013C74.56,33.427 72.547,31.335 69.74,31.335C66.931,31.335 64.894,33.452 64.894,36.039L64.894,36.064C64.894,38.654 66.906,40.744 69.713,40.744ZM69.74,38.9C68.127,38.9 66.984,37.6 66.984,36.039L66.984,36.013C66.984,34.453 68.101,33.179 69.713,33.179C71.326,33.179 72.468,34.479 72.468,36.039L72.468,36.064C72.468,37.624 71.351,38.9 69.74,38.9ZM81.836,40.717C83.798,40.717 85.173,39.705 85.173,37.899L85.173,37.872C85.173,36.286 84.134,35.622 82.291,35.142C80.716,34.739 80.326,34.544 80.326,33.946L80.326,33.919C80.326,33.478 80.728,33.126 81.496,33.126C82.263,33.126 83.056,33.465 83.861,34.024L84.902,32.517C83.98,31.775 82.849,31.361 81.523,31.361C79.664,31.361 78.339,32.451 78.339,34.102L78.339,34.127C78.339,35.936 79.521,36.442 81.353,36.911C82.875,37.301 83.187,37.561 83.187,38.067L83.187,38.093C83.187,38.626 82.693,38.952 81.875,38.952C80.834,38.952 79.976,38.522 79.158,37.847L77.976,39.263C79.068,40.237 80.457,40.717 81.836,40.717Z" style="fill:rgb(211,31,58);fill-rule:nonzero;"/>
        <rect x="54.009" y="28.488" width="5.317" height="1.351" style="fill:rgb(211,31,58);fill-rule:nonzero;"/>
        <path d="M39.475,25.271L48.009,25.271L48.009,22.837L43.559,22.837L45.406,21.542C47.007,20.386 47.902,19.494 47.902,17.768L47.902,17.737C47.902,15.703 46.283,14.301 43.927,14.301C41.832,14.301 40.692,15.117 39.537,16.612L41.556,18.291C42.402,17.32 42.973,16.904 43.696,16.904C44.422,16.904 44.898,17.32 44.898,17.998C44.898,18.646 44.513,19.154 43.511,19.94L39.475,23.021L39.475,25.271ZM60.259,25.486C63.588,25.486 66.082,22.974 66.082,19.878L66.082,19.846C66.082,16.749 63.617,14.271 60.291,14.271C56.964,14.271 54.468,16.782 54.468,19.878L54.468,19.909C54.468,23.004 56.933,25.486 60.259,25.486ZM60.291,22.789C58.66,22.789 57.535,21.434 57.535,19.878L57.535,19.846C57.535,18.291 58.627,16.966 60.259,16.966C61.908,16.966 63.033,18.323 63.033,19.878L63.033,19.909C63.033,21.464 61.939,22.789 60.291,22.789ZM79.142,25.486C82.47,25.486 84.966,22.974 84.966,19.878L84.966,19.846C84.966,16.749 82.502,14.271 79.175,14.271C75.847,14.271 73.351,16.782 73.351,19.878L73.351,19.909C73.351,23.004 75.818,25.486 79.142,25.486ZM79.175,22.789C77.541,22.789 76.418,21.434 76.418,19.878L76.418,19.846C76.418,18.291 77.511,16.966 79.142,16.966C80.793,16.966 81.916,18.323 81.916,19.878L81.916,19.909C81.916,21.464 80.822,22.789 79.175,22.789Z" style="fill:white;fill-rule:nonzero;"/>
        <path d="M18.443,27.02L20.113,26.995C21.145,26.945 22.039,26.8 22.8,26.569C23.559,26.335 24.174,25.996 24.645,25.549C25.116,25.102 25.486,24.516 25.756,23.791C26.026,23.067 26.162,22.173 26.162,21.111C26.162,19.259 25.702,17.776 24.78,16.663C23.886,15.581 21.922,14.956 18.443,15.1L18.443,14.372C18.443,14.372 20.687,14.415 21.952,14.449C25.704,14.551 28.057,15.865 28.946,16.994C29.762,18.028 30.406,18.898 30.397,20.801C30.143,26.109 25.143,27.393 22.935,27.482C24.898,28.657 29.422,36.224 31.674,38.493C32.664,39.49 33.517,39.761 35.063,39.813L35.063,40.706L28.639,40.706C28.02,40.706 26.711,37.523 24.132,33.794C23.307,32.602 22.452,31.457 21.563,30.367C20.822,29.453 19.585,28.185 18.443,27.396L18.443,27.02Z" style="fill:white;fill-rule:nonzero;"/>
        <path d="M16.609,40.706L8.181,40.706L8.181,39.814L9.534,39.814C10.656,39.814 11.431,39.672 11.864,39.386C12.296,39.102 12.571,38.658 12.695,38.055C12.816,37.454 12.878,36.052 12.878,33.85L12.878,15.266L7.23,15.266C5.54,15.266 4.406,15.346 3.826,15.508C3.246,15.67 2.701,16.159 2.192,16.975C1.683,17.79 1.294,19.033 1.022,20.703L0.134,20.703L0.27,14.372L16.647,14.372L16.609,40.706Z" style="fill:rgb(211,31,58);fill-rule:nonzero;"/>
        <path d="M26.988,3.599C26.356,3.184 25.54,3.118 24.683,3.401C24.013,3.192 23.276,3.413 22.838,3.838C22.403,3.413 21.666,3.193 20.995,3.401C20.139,3.118 19.323,3.184 18.69,3.599C17.342,4.484 17.198,6.723 18.364,8.699L18.575,8.82L27.103,8.82L27.313,8.699C28.48,6.723 28.335,4.484 26.988,3.599ZM18.958,4.01C19.351,3.752 19.84,3.663 20.373,3.747C19.287,4.651 19.151,6.553 20.04,8.328L18.718,8.328C17.758,6.612 17.856,4.733 18.958,4.01ZM20.595,8.328C19.637,6.612 19.734,4.733 20.837,4.01L21.066,3.894L21.112,3.879C21.659,3.696 22.297,3.909 22.592,4.296L22.592,8.328L20.595,8.328ZM23.084,8.328L23.084,4.297C23.38,3.909 24.017,3.696 24.566,3.879L24.613,3.894L24.84,4.01C25.943,4.733 26.042,6.612 25.082,8.328L23.084,8.328ZM26.96,8.328L25.636,8.328C26.526,6.553 26.389,4.651 25.305,3.747C25.838,3.663 26.326,3.752 26.72,4.01C27.821,4.733 27.919,6.612 26.96,8.328Z" style="fill:white;fill-rule:nonzero;"/>
        <path d="M22.935,1.162L22.935,0.821L23.338,0.821L23.338,0.622L22.935,0.622L22.935,0.205L22.748,0.205L22.748,0.622L22.326,0.622L22.326,0.821L22.748,0.821L22.748,1.162C22.304,1.208 21.953,1.58 21.953,2.037C21.953,2.525 22.351,2.921 22.839,2.921C23.326,2.921 23.723,2.525 23.723,2.037C23.723,1.582 23.376,1.212 22.935,1.162Z" style="fill:white;fill-rule:nonzero;"/>
        <rect x="18.442" y="9.567" width="8.736" height="0.539" style="fill:white;fill-rule:nonzero;"/>
    </g>
</svg>
